<svg xmlns="http://www.w3.org/2000/svg" xmlns:xlink="http://www.w3.org/1999/xlink" width="500" zoomAndPan="magnify" viewBox="0 0 375 374.999991" height="500" preserveAspectRatio="xMidYMid meet" version="1.0"><defs><g/><clipPath id="ca1c9bbab4"><path d="M 55.144531 147.78125 L 333.394531 147.78125 L 333.394531 234.78125 L 55.144531 234.78125 Z M 55.144531 147.78125 " clip-rule="nonzero"/></clipPath></defs><g clip-path="url(#ca1c9bbab4)"><path fill="#16e0bd" d="M 288.683594 164.375 C 304.527344 171.734375 313.960938 181.023438 313.960938 191.28125 C 313.960938 201.484375 304.527344 210.828125 288.683594 218.1875 C 308.730469 210.9375 320.910156 201.484375 320.910156 191.28125 C 320.910156 181.078125 308.730469 171.625 288.683594 164.375 Z M 194.269531 147.78125 C 232.421875 147.78125 266.96875 152.507812 292.027344 160.1875 C 317.570312 167.972656 333.359375 178.984375 333.359375 191.28125 C 333.359375 203.578125 317.570312 214.589844 292.027344 222.375 C 266.96875 230 232.421875 234.78125 194.269531 234.78125 C 156.113281 234.78125 121.570312 230.054688 96.511719 222.375 C 70.96875 214.589844 55.179688 203.578125 55.179688 191.28125 C 55.179688 178.984375 70.96875 167.972656 96.511719 160.1875 C 121.515625 152.507812 156.113281 147.78125 194.269531 147.78125 Z M 89.453125 165.503906 C 69.835938 172.59375 58.035156 181.5625 58.035156 191.226562 C 58.035156 200.894531 69.835938 209.917969 89.453125 216.953125 C 73.878906 209.808594 64.714844 200.894531 64.714844 191.226562 C 64.714844 181.5625 73.878906 172.644531 89.453125 165.503906 Z M 299.03125 217.003906 C 314.605469 209.863281 323.765625 200.949219 323.765625 191.28125 C 323.765625 181.613281 314.605469 172.699219 299.03125 165.558594 C 318.648438 172.644531 330.449219 181.613281 330.449219 191.28125 C 330.449219 200.949219 318.648438 209.917969 299.03125 217.003906 Z M 99.800781 218.132812 C 83.957031 210.777344 74.523438 201.484375 74.523438 191.226562 C 74.523438 181.023438 83.957031 171.679688 99.800781 164.320312 C 79.753906 171.570312 67.574219 181.023438 67.574219 191.226562 C 67.574219 201.484375 79.804688 210.882812 99.800781 218.132812 Z M 277.367188 162.871094 C 298.167969 170.28125 311.050781 180.324219 311.050781 191.226562 C 311.050781 202.183594 298.167969 212.226562 277.367188 219.582031 C 256.136719 227.15625 226.710938 231.828125 194.214844 231.828125 C 161.71875 231.828125 132.347656 227.15625 111.0625 219.582031 C 90.261719 212.171875 77.378906 202.128906 77.378906 191.226562 C 77.378906 180.273438 90.261719 170.230469 111.0625 162.871094 C 132.296875 155.300781 161.71875 150.628906 194.214844 150.628906 C 226.710938 150.628906 256.136719 155.351562 277.367188 162.871094 Z M 277.367188 162.871094 " fill-opacity="1" fill-rule="evenodd"/></g><g fill="#ffffff" fill-opacity="1"><g transform="translate(80.346585, 196.357019)"><g><path d="M 2.109375 0 L 2.109375 -19.203125 L 6.9375 -19.203125 L 12.921875 -7.40625 L 18.84375 -19.203125 L 23.65625 -19.203125 L 23.65625 0 L 19.75 0 L 19.75 -12.984375 L 14.296875 -1.953125 L 11.5 -1.953125 L 6.015625 -12.984375 L 6.015625 0 Z M 2.109375 0 "/></g></g></g><g fill="#ffffff" fill-opacity="1"><g transform="translate(107.533488, 196.357019)"><g><path d="M 20.9375 0 L 16.296875 0 L 14.78125 -3.734375 L 5.90625 -3.734375 L 4.390625 0 L -0.078125 0 L 8.265625 -19.203125 L 12.734375 -19.203125 Z M 10.375 -14.671875 L 7.328125 -7.21875 L 13.390625 -7.21875 Z M 10.375 -14.671875 "/></g></g></g><g fill="#ffffff" fill-opacity="1"><g transform="translate(129.754903, 196.357019)"><g><path d="M 0.21875 -15.53125 L 0.21875 -19.203125 L 16.265625 -19.203125 L 16.265625 -15.53125 L 10.40625 -15.53125 L 10.40625 0 L 6.0625 0 L 6.0625 -15.53125 Z M 0.21875 -15.53125 "/></g></g></g><g fill="#ffffff" fill-opacity="1"><g transform="translate(147.641812, 196.357019)"><g><path d="M 0.21875 -15.53125 L 0.21875 -19.203125 L 16.265625 -19.203125 L 16.265625 -15.53125 L 10.40625 -15.53125 L 10.40625 0 L 6.0625 0 L 6.0625 -15.53125 Z M 0.21875 -15.53125 "/></g></g></g><g fill="#ffffff" fill-opacity="1"><g transform="translate(165.52872, 196.357019)"><g/></g></g><g fill="#ffffff" fill-opacity="1"><g transform="translate(174.335097, 196.357019)"><g><path d="M 2.109375 0 L 2.109375 -19.203125 L 6.453125 -19.203125 L 6.453125 -3.78125 L 14.671875 -3.78125 L 14.671875 0 Z M 2.109375 0 "/></g></g></g><g fill="#ffffff" fill-opacity="1"><g transform="translate(190.87776, 196.357019)"><g><path d="M 2.109375 0 L 2.109375 -19.203125 L 16.734375 -19.203125 L 16.734375 -15.609375 L 6.453125 -15.609375 L 6.453125 -11.4375 L 15.6875 -11.4375 L 15.6875 -7.84375 L 6.453125 -7.84375 L 6.453125 -3.59375 L 17.03125 -3.59375 L 17.03125 0 Z M 2.109375 0 "/></g></g></g><g fill="#ffffff" fill-opacity="1"><g transform="translate(210.602715, 196.357019)"><g><path d="M 15.390625 -6.796875 L 15.390625 -19.203125 L 19.515625 -19.203125 L 19.515625 0 L 15.5625 0 L 6.25 -12.34375 L 6.25 0 L 2.109375 0 L 2.109375 -19.203125 L 6.0625 -19.203125 Z M 15.390625 -6.796875 "/></g></g></g><g fill="#ffffff" fill-opacity="1"><g transform="translate(233.619712, 196.357019)"><g><path d="M 15.390625 -6.796875 L 15.390625 -19.203125 L 19.515625 -19.203125 L 19.515625 0 L 15.5625 0 L 6.25 -12.34375 L 6.25 0 L 2.109375 0 L 2.109375 -19.203125 L 6.0625 -19.203125 Z M 15.390625 -6.796875 "/></g></g></g><g fill="#ffffff" fill-opacity="1"><g transform="translate(256.636708, 196.357019)"><g><path d="M 11.0625 -19.515625 C 12.976562 -19.515625 14.722656 -19.082031 16.296875 -18.21875 C 17.867188 -17.351562 19.109375 -16.164062 20.015625 -14.65625 C 20.921875 -13.15625 21.375 -11.476562 21.375 -9.625 C 21.375 -7.78125 20.921875 -6.097656 20.015625 -4.578125 C 19.109375 -3.066406 17.867188 -1.875 16.296875 -1 C 14.722656 -0.132812 12.976562 0.296875 11.0625 0.296875 C 9.132812 0.296875 7.382812 -0.132812 5.8125 -1 C 4.238281 -1.875 3 -3.0625 2.09375 -4.5625 C 1.1875 -6.070312 0.734375 -7.757812 0.734375 -9.625 C 0.734375 -11.476562 1.1875 -13.15625 2.09375 -14.65625 C 3 -16.164062 4.234375 -17.351562 5.796875 -18.21875 C 7.367188 -19.082031 9.125 -19.515625 11.0625 -19.515625 Z M 11.109375 -15.71875 C 10.046875 -15.71875 9.054688 -15.445312 8.140625 -14.90625 C 7.234375 -14.375 6.515625 -13.640625 5.984375 -12.703125 C 5.453125 -11.765625 5.1875 -10.738281 5.1875 -9.625 C 5.1875 -8.488281 5.453125 -7.453125 5.984375 -6.515625 C 6.523438 -5.585938 7.25 -4.847656 8.15625 -4.296875 C 9.0625 -3.753906 10.046875 -3.484375 11.109375 -3.484375 C 12.171875 -3.484375 13.144531 -3.753906 14.03125 -4.296875 C 14.914062 -4.835938 15.617188 -5.578125 16.140625 -6.515625 C 16.660156 -7.453125 16.921875 -8.488281 16.921875 -9.625 C 16.921875 -10.738281 16.660156 -11.765625 16.140625 -12.703125 C 15.617188 -13.640625 14.914062 -14.375 14.03125 -14.90625 C 13.144531 -15.445312 12.171875 -15.71875 11.109375 -15.71875 Z M 11.109375 -15.71875 "/></g></g></g><g fill="#ffffff" fill-opacity="1"><g transform="translate(280.147507, 196.357019)"><g><path d="M 15.390625 -6.796875 L 15.390625 -19.203125 L 19.515625 -19.203125 L 19.515625 0 L 15.5625 0 L 6.25 -12.34375 L 6.25 0 L 2.109375 0 L 2.109375 -19.203125 L 6.0625 -19.203125 Z M 15.390625 -6.796875 "/></g></g></g><g fill="#ffffff" fill-opacity="1"><g transform="translate(142.108707, 214.979722)"><g><path d="M 3.015625 0.109375 C 2.109375 0.109375 1.46875 -0.160156 1.09375 -0.703125 C 0.726562 -1.242188 0.546875 -1.992188 0.546875 -2.953125 L 0.546875 -6.1875 C 0.546875 -7.1875 0.722656 -7.945312 1.078125 -8.46875 C 1.441406 -8.988281 2.085938 -9.25 3.015625 -9.25 C 3.835938 -9.25 4.425781 -9.023438 4.78125 -8.578125 C 5.144531 -8.140625 5.328125 -7.484375 5.328125 -6.609375 L 5.328125 -5.890625 L 4.109375 -5.890625 L 4.109375 -6.53125 C 4.109375 -6.957031 4.085938 -7.28125 4.046875 -7.5 C 4.015625 -7.726562 3.921875 -7.910156 3.765625 -8.046875 C 3.609375 -8.191406 3.363281 -8.265625 3.03125 -8.265625 C 2.675781 -8.265625 2.414062 -8.1875 2.25 -8.03125 C 2.082031 -7.882812 1.96875 -7.679688 1.90625 -7.421875 C 1.851562 -7.160156 1.828125 -6.8125 1.828125 -6.375 L 1.828125 -2.734375 C 1.828125 -2.273438 1.863281 -1.910156 1.9375 -1.640625 C 2.019531 -1.378906 2.144531 -1.191406 2.3125 -1.078125 C 2.488281 -0.960938 2.726562 -0.90625 3.03125 -0.90625 C 3.351562 -0.90625 3.59375 -0.976562 3.75 -1.125 C 3.90625 -1.269531 4.003906 -1.460938 4.046875 -1.703125 C 4.085938 -1.953125 4.109375 -2.296875 4.109375 -2.734375 L 4.109375 -3.40625 L 5.328125 -3.40625 L 5.328125 -2.734375 C 5.328125 -1.816406 5.15625 -1.113281 4.8125 -0.625 C 4.46875 -0.132812 3.867188 0.109375 3.015625 0.109375 Z M 3.015625 0.109375 "/></g></g></g><g fill="#ffffff" fill-opacity="1"><g transform="translate(150.982652, 214.979722)"><g><path d="M 3.0625 0.109375 C 2.15625 0.109375 1.507812 -0.144531 1.125 -0.65625 C 0.738281 -1.164062 0.546875 -1.90625 0.546875 -2.875 L 0.546875 -6.359375 C 0.546875 -7.304688 0.738281 -8.023438 1.125 -8.515625 C 1.519531 -9.003906 2.164062 -9.25 3.0625 -9.25 C 3.945312 -9.25 4.582031 -9 4.96875 -8.5 C 5.363281 -8.007812 5.5625 -7.296875 5.5625 -6.359375 L 5.5625 -2.859375 C 5.5625 -1.910156 5.363281 -1.175781 4.96875 -0.65625 C 4.582031 -0.144531 3.945312 0.109375 3.0625 0.109375 Z M 3.0625 -0.90625 C 3.53125 -0.90625 3.847656 -1.046875 4.015625 -1.328125 C 4.179688 -1.609375 4.265625 -2.03125 4.265625 -2.59375 L 4.265625 -6.609375 C 4.265625 -7.171875 4.179688 -7.585938 4.015625 -7.859375 C 3.847656 -8.128906 3.53125 -8.265625 3.0625 -8.265625 C 2.570312 -8.265625 2.242188 -8.128906 2.078125 -7.859375 C 1.910156 -7.585938 1.828125 -7.171875 1.828125 -6.609375 L 1.828125 -2.59375 C 1.828125 -2.03125 1.910156 -1.609375 2.078125 -1.328125 C 2.242188 -1.046875 2.570312 -0.90625 3.0625 -0.90625 Z M 3.0625 -0.90625 "/></g></g></g><g fill="#ffffff" fill-opacity="1"><g transform="translate(160.128555, 214.979722)"><g><path d="M 0.71875 -9.171875 L 1.59375 -9.171875 L 4.1875 -3.078125 L 4.1875 -9.171875 L 5.25 -9.171875 L 5.25 0 L 4.4375 0 L 1.796875 -6.265625 L 1.796875 0 L 0.71875 0 Z M 0.71875 -9.171875 "/></g></g></g><g fill="#ffffff" fill-opacity="1"><g transform="translate(169.149809, 214.979722)"><g><path d="M 1.71875 -8.21875 L 0.171875 -8.21875 L 0.171875 -9.171875 L 4.515625 -9.171875 L 4.515625 -8.21875 L 3 -8.21875 L 3 0 L 1.71875 0 Z M 1.71875 -8.21875 "/></g></g></g><g fill="#ffffff" fill-opacity="1"><g transform="translate(176.86789, 214.979722)"><g><path d="M 0.71875 -9.171875 L 4.265625 -9.171875 L 4.265625 -8.21875 L 2 -8.21875 L 2 -5.1875 L 3.84375 -5.1875 L 3.84375 -4.28125 L 2 -4.28125 L 2 -0.921875 L 4.296875 -0.921875 L 4.296875 0 L 0.71875 0 Z M 0.71875 -9.171875 "/></g></g></g><g fill="#ffffff" fill-opacity="1"><g transform="translate(184.517982, 214.979722)"><g><path d="M 0.71875 -9.171875 L 1.59375 -9.171875 L 4.1875 -3.078125 L 4.1875 -9.171875 L 5.25 -9.171875 L 5.25 0 L 4.4375 0 L 1.796875 -6.265625 L 1.796875 0 L 0.71875 0 Z M 0.71875 -9.171875 "/></g></g></g><g fill="#ffffff" fill-opacity="1"><g transform="translate(193.539236, 214.979722)"><g><path d="M 1.71875 -8.21875 L 0.171875 -8.21875 L 0.171875 -9.171875 L 4.515625 -9.171875 L 4.515625 -8.21875 L 3 -8.21875 L 3 0 L 1.71875 0 Z M 1.71875 -8.21875 "/></g></g></g><g fill="#ffffff" fill-opacity="1"><g transform="translate(201.25732, 214.979722)"><g/></g></g><g fill="#ffffff" fill-opacity="1"><g transform="translate(206.890319, 214.979722)"><g><path d="M 2.640625 0.109375 C 2.015625 0.109375 1.523438 -0.0820312 1.171875 -0.46875 C 0.828125 -0.851562 0.65625 -1.347656 0.65625 -1.953125 C 0.65625 -2.492188 0.773438 -2.976562 1.015625 -3.40625 C 1.253906 -3.832031 1.582031 -4.234375 2 -4.609375 L 1.75 -5.078125 C 1.5 -5.515625 1.3125 -5.890625 1.1875 -6.203125 C 1.0625 -6.523438 1 -6.867188 1 -7.234375 C 1 -7.835938 1.171875 -8.320312 1.515625 -8.6875 C 1.867188 -9.0625 2.347656 -9.25 2.953125 -9.25 C 3.523438 -9.25 3.992188 -9.097656 4.359375 -8.796875 C 4.722656 -8.492188 4.90625 -8.082031 4.90625 -7.5625 C 4.90625 -7.019531 4.738281 -6.5 4.40625 -6 C 4.082031 -5.507812 3.675781 -5.023438 3.1875 -4.546875 L 4.5625 -2.375 C 4.78125 -2.800781 4.929688 -3.414062 5.015625 -4.21875 L 6.21875 -4.21875 C 6.21875 -3.789062 6.128906 -3.332031 5.953125 -2.84375 C 5.773438 -2.363281 5.566406 -1.957031 5.328125 -1.625 C 5.441406 -1.488281 5.578125 -1.375 5.734375 -1.28125 C 5.890625 -1.195312 6.054688 -1.15625 6.234375 -1.15625 L 6.234375 0.09375 L 6.078125 0.09375 C 5.867188 0.09375 5.675781 0.046875 5.5 -0.046875 C 5.332031 -0.140625 5.195312 -0.234375 5.09375 -0.328125 C 4.988281 -0.421875 4.828125 -0.578125 4.609375 -0.796875 C 4.390625 -0.523438 4.113281 -0.304688 3.78125 -0.140625 C 3.445312 0.0234375 3.066406 0.109375 2.640625 0.109375 Z M 2.765625 -5.21875 C 3.023438 -5.519531 3.242188 -5.882812 3.421875 -6.3125 C 3.597656 -6.738281 3.6875 -7.15625 3.6875 -7.5625 C 3.6875 -7.78125 3.617188 -7.953125 3.484375 -8.078125 C 3.359375 -8.203125 3.179688 -8.265625 2.953125 -8.265625 C 2.703125 -8.265625 2.515625 -8.160156 2.390625 -7.953125 C 2.265625 -7.753906 2.203125 -7.515625 2.203125 -7.234375 C 2.203125 -6.910156 2.25 -6.585938 2.34375 -6.265625 C 2.445312 -5.941406 2.585938 -5.59375 2.765625 -5.21875 Z M 2.640625 -0.90625 C 3.097656 -0.90625 3.507812 -1.132812 3.875 -1.59375 L 2.46875 -3.75 C 2.289062 -3.519531 2.144531 -3.242188 2.03125 -2.921875 C 1.925781 -2.609375 1.875 -2.285156 1.875 -1.953125 C 1.875 -1.648438 1.929688 -1.398438 2.046875 -1.203125 C 2.171875 -1.003906 2.367188 -0.90625 2.640625 -0.90625 Z M 2.640625 -0.90625 "/></g></g></g><g fill="#ffffff" fill-opacity="1"><g transform="translate(216.795466, 214.979722)"><g/></g></g><g fill="#ffffff" fill-opacity="1"><g transform="translate(222.428465, 214.979722)"><g><path d="M 0.71875 -9.171875 L 2.703125 -9.171875 C 3.691406 -9.171875 4.390625 -8.941406 4.796875 -8.484375 C 5.210938 -8.035156 5.421875 -7.332031 5.421875 -6.375 L 5.421875 -3 C 5.421875 -1.988281 5.21875 -1.234375 4.8125 -0.734375 C 4.414062 -0.242188 3.75 0 2.8125 0 L 0.71875 0 Z M 2.71875 -0.921875 C 3.164062 -0.921875 3.488281 -1.003906 3.6875 -1.171875 C 3.882812 -1.347656 4.007812 -1.582031 4.0625 -1.875 C 4.113281 -2.175781 4.140625 -2.628906 4.140625 -3.234375 L 4.140625 -6.21875 C 4.140625 -6.738281 4.101562 -7.132812 4.03125 -7.40625 C 3.96875 -7.6875 3.832031 -7.890625 3.625 -8.015625 C 3.425781 -8.148438 3.113281 -8.21875 2.6875 -8.21875 L 2 -8.21875 L 2 -0.921875 Z M 2.71875 -0.921875 "/></g></g></g><g fill="#ffffff" fill-opacity="1"><g transform="translate(231.438386, 214.979722)"><g><path d="M 0.71875 -9.171875 L 4.265625 -9.171875 L 4.265625 -8.21875 L 2 -8.21875 L 2 -5.1875 L 3.84375 -5.1875 L 3.84375 -4.28125 L 2 -4.28125 L 2 -0.921875 L 4.296875 -0.921875 L 4.296875 0 L 0.71875 0 Z M 0.71875 -9.171875 "/></g></g></g><g fill="#ffffff" fill-opacity="1"><g transform="translate(239.088475, 214.979722)"><g><path d="M 2.875 0.109375 C 2.101562 0.109375 1.515625 -0.128906 1.109375 -0.609375 C 0.710938 -1.085938 0.488281 -1.742188 0.4375 -2.578125 L 1.578125 -2.875 C 1.609375 -2.289062 1.71875 -1.816406 1.90625 -1.453125 C 2.101562 -1.085938 2.425781 -0.90625 2.875 -0.90625 C 3.207031 -0.90625 3.457031 -1 3.625 -1.1875 C 3.800781 -1.375 3.890625 -1.640625 3.890625 -1.984375 C 3.890625 -2.359375 3.804688 -2.671875 3.640625 -2.921875 C 3.484375 -3.171875 3.234375 -3.445312 2.890625 -3.75 L 1.34375 -5.109375 C 1.039062 -5.378906 0.816406 -5.671875 0.671875 -5.984375 C 0.535156 -6.296875 0.46875 -6.679688 0.46875 -7.140625 C 0.46875 -7.804688 0.660156 -8.320312 1.046875 -8.6875 C 1.429688 -9.0625 1.953125 -9.25 2.609375 -9.25 C 3.335938 -9.25 3.882812 -9.054688 4.25 -8.671875 C 4.625 -8.285156 4.847656 -7.691406 4.921875 -6.890625 L 3.84375 -6.59375 C 3.800781 -7.125 3.695312 -7.535156 3.53125 -7.828125 C 3.363281 -8.117188 3.054688 -8.265625 2.609375 -8.265625 C 2.285156 -8.265625 2.035156 -8.179688 1.859375 -8.015625 C 1.691406 -7.847656 1.609375 -7.597656 1.609375 -7.265625 C 1.609375 -6.992188 1.648438 -6.765625 1.734375 -6.578125 C 1.828125 -6.390625 1.984375 -6.203125 2.203125 -6.015625 L 3.765625 -4.65625 C 4.160156 -4.300781 4.476562 -3.914062 4.71875 -3.5 C 4.957031 -3.082031 5.078125 -2.609375 5.078125 -2.078125 C 5.078125 -1.410156 4.875 -0.878906 4.46875 -0.484375 C 4.0625 -0.0859375 3.53125 0.109375 2.875 0.109375 Z M 2.875 0.109375 "/></g></g></g><g fill="#ffffff" fill-opacity="1"><g transform="translate(247.486469, 214.979722)"><g><path d="M 0.78125 -9.171875 L 2.046875 -9.171875 L 2.046875 0 L 0.78125 0 Z M 0.78125 -9.171875 "/></g></g></g><g fill="#ffffff" fill-opacity="1"><g transform="translate(253.334766, 214.979722)"><g><path d="M 2.90625 0.109375 C 2.070312 0.109375 1.46875 -0.148438 1.09375 -0.671875 C 0.726562 -1.203125 0.546875 -1.984375 0.546875 -3.015625 L 0.546875 -6.078125 C 0.546875 -6.785156 0.617188 -7.367188 0.765625 -7.828125 C 0.910156 -8.285156 1.160156 -8.632812 1.515625 -8.875 C 1.878906 -9.125 2.375 -9.25 3 -9.25 C 3.84375 -9.25 4.453125 -9.035156 4.828125 -8.609375 C 5.203125 -8.179688 5.390625 -7.503906 5.390625 -6.578125 L 5.390625 -6.234375 L 4.1875 -6.234375 L 4.1875 -6.53125 C 4.1875 -6.96875 4.160156 -7.300781 4.109375 -7.53125 C 4.054688 -7.769531 3.941406 -7.953125 3.765625 -8.078125 C 3.597656 -8.203125 3.351562 -8.265625 3.03125 -8.265625 C 2.675781 -8.265625 2.410156 -8.179688 2.234375 -8.015625 C 2.054688 -7.847656 1.941406 -7.628906 1.890625 -7.359375 C 1.847656 -7.085938 1.828125 -6.726562 1.828125 -6.28125 L 1.828125 -2.875 C 1.828125 -2.175781 1.910156 -1.671875 2.078125 -1.359375 C 2.242188 -1.054688 2.570312 -0.90625 3.0625 -0.90625 C 3.53125 -0.90625 3.851562 -1.070312 4.03125 -1.40625 C 4.21875 -1.738281 4.3125 -2.269531 4.3125 -3 L 4.3125 -3.640625 L 3.140625 -3.640625 L 3.140625 -4.546875 L 5.453125 -4.546875 L 5.453125 0 L 4.65625 0 L 4.53125 -1.046875 C 4.238281 -0.273438 3.695312 0.109375 2.90625 0.109375 Z M 2.90625 0.109375 "/></g></g></g><g fill="#ffffff" fill-opacity="1"><g transform="translate(262.435348, 214.979722)"><g><path d="M 0.71875 -9.171875 L 1.59375 -9.171875 L 4.1875 -3.078125 L 4.1875 -9.171875 L 5.25 -9.171875 L 5.25 0 L 4.4375 0 L 1.796875 -6.265625 L 1.796875 0 L 0.71875 0 Z M 0.71875 -9.171875 "/></g></g></g><path stroke-linecap="butt" transform="matrix(3.001493, 0, 0, 3, 80.346585, 201.863308)" fill="none" stroke-linejoin="miter" d="M 0.000356964 -0.00000876477 L 39.234734 -0.00000876477 " stroke="#ffffff" stroke-width="1" stroke-opacity="1" stroke-miterlimit="4"/><path stroke-linecap="butt" transform="matrix(3.01131, 0, 0, 3, 223.181255, 201.863308)" fill="none" stroke-linejoin="miter" d="M -0.000520685 -0.00000876477 L 25.90442 -0.00000876477 " stroke="#ffffff" stroke-width="1" stroke-opacity="1" stroke-miterlimit="4"/></svg>