<svg xmlns="http://www.w3.org/2000/svg" xmlns:xlink="http://www.w3.org/1999/xlink" width="500" zoomAndPan="magnify" viewBox="0 0 375 374.999991" height="500" preserveAspectRatio="xMidYMid meet" version="1.0"><defs><filter x="0%" y="0%" width="100%" height="100%" id="6796a50075"><feColorMatrix values="0 0 0 0 1 0 0 0 0 1 0 0 0 0 1 0 0 0 1 0" color-interpolation-filters="sRGB"/></filter><g/><clipPath id="01cc2eca9b"><path d="M 107.503906 137 L 210.253906 137 L 210.253906 238.195312 L 107.503906 238.195312 Z M 107.503906 137 " clip-rule="nonzero"/></clipPath><mask id="3c4eb2912a"><g filter="url(#6796a50075)"><rect x="-37.5" width="450" fill="#000000" y="-37.499999" height="449.999989" fill-opacity="0.8"/></g></mask><clipPath id="ea957f83cd"><path d="M 3 5 L 103.253906 5 L 103.253906 100 L 3 100 Z M 3 5 " clip-rule="nonzero"/></clipPath><clipPath id="838f48bde8"><path d="M 26 94 L 49 94 L 49 101.195312 L 26 101.195312 Z M 26 94 " clip-rule="nonzero"/></clipPath><clipPath id="45ca30b93f"><path d="M 0.761719 0.0390625 L 82 0.0390625 L 82 93 L 0.761719 93 Z M 0.761719 0.0390625 " clip-rule="nonzero"/></clipPath><clipPath id="fb94ff63ac"><rect x="0" width="104" y="0" height="102"/></clipPath></defs><rect x="-37.5" width="450" fill="#ffffff" y="-37.499999" height="449.999989" fill-opacity="1"/><rect x="-37.5" width="450" fill="#ffffff" y="-37.499999" height="449.999989" fill-opacity="1"/><rect x="-37.5" width="450" fill="#303030" y="-37.499999" height="449.999989" fill-opacity="1"/><g fill="#ffffff" fill-opacity="1"><g transform="translate(137.824918, 196.797013)"><g><path d="M 19.375 0 L 12.890625 0 L 10.34375 -5.1875 L 7.328125 -5.1875 L 7.328125 0 L 1.625 0 L 1.625 -19.234375 L 10.59375 -19.234375 C 13.164062 -19.234375 15.160156 -18.640625 16.578125 -17.453125 C 18.003906 -16.265625 18.71875 -14.582031 18.71875 -12.40625 C 18.71875 -10.988281 18.4375 -9.765625 17.875 -8.734375 C 17.3125 -7.703125 16.507812 -6.882812 15.46875 -6.28125 Z M 7.328125 -14.84375 L 7.328125 -9.578125 L 10.59375 -9.578125 C 11.445312 -9.578125 12.109375 -9.804688 12.578125 -10.265625 C 13.046875 -10.722656 13.28125 -11.378906 13.28125 -12.234375 C 13.28125 -13.078125 13.046875 -13.722656 12.578125 -14.171875 C 12.109375 -14.617188 11.445312 -14.84375 10.59375 -14.84375 Z M 7.328125 -14.84375 "/></g></g></g><g fill="#ffffff" fill-opacity="1"><g transform="translate(159.113594, 196.797013)"><g><path d="M 1.625 0 L 1.625 -19.234375 L 17.34375 -19.234375 L 17.34375 -14.84375 L 7.328125 -14.84375 L 7.328125 -11.828125 L 16.40625 -11.828125 L 16.40625 -7.4375 L 7.328125 -7.4375 L 7.328125 -4.390625 L 17.609375 -4.390625 L 17.609375 0 Z M 1.625 0 "/></g></g></g><g fill="#ffffff" fill-opacity="1"><g transform="translate(179.250056, 196.797013)"><g><path d="M 15.453125 -13.03125 C 14.421875 -13.632812 13.289062 -14.144531 12.0625 -14.5625 C 10.84375 -14.988281 9.835938 -15.203125 9.046875 -15.203125 C 8.554688 -15.203125 8.171875 -15.101562 7.890625 -14.90625 C 7.609375 -14.71875 7.46875 -14.441406 7.46875 -14.078125 C 7.46875 -13.566406 7.738281 -13.164062 8.28125 -12.875 C 8.832031 -12.59375 9.703125 -12.289062 10.890625 -11.96875 C 12.242188 -11.582031 13.359375 -11.191406 14.234375 -10.796875 C 15.117188 -10.398438 15.882812 -9.800781 16.53125 -9 C 17.175781 -8.195312 17.5 -7.132812 17.5 -5.8125 C 17.5 -4.476562 17.144531 -3.347656 16.4375 -2.421875 C 15.738281 -1.503906 14.789062 -0.816406 13.59375 -0.359375 C 12.394531 0.0976562 11.054688 0.328125 9.578125 0.328125 C 7.929688 0.328125 6.28125 0.0507812 4.625 -0.5 C 2.96875 -1.0625 1.535156 -1.828125 0.328125 -2.796875 L 2.46875 -7.140625 C 3.4375 -6.296875 4.617188 -5.582031 6.015625 -5 C 7.421875 -4.425781 8.625 -4.140625 9.625 -4.140625 C 10.25 -4.140625 10.734375 -4.257812 11.078125 -4.5 C 11.429688 -4.738281 11.609375 -5.078125 11.609375 -5.515625 C 11.609375 -6.046875 11.320312 -6.453125 10.75 -6.734375 C 10.1875 -7.015625 9.3125 -7.3125 8.125 -7.625 C 6.789062 -7.976562 5.679688 -8.34375 4.796875 -8.71875 C 3.921875 -9.09375 3.160156 -9.671875 2.515625 -10.453125 C 1.878906 -11.242188 1.5625 -12.273438 1.5625 -13.546875 C 1.5625 -14.796875 1.890625 -15.878906 2.546875 -16.796875 C 3.210938 -17.722656 4.144531 -18.429688 5.34375 -18.921875 C 6.539062 -19.421875 7.929688 -19.671875 9.515625 -19.671875 C 10.960938 -19.671875 12.398438 -19.460938 13.828125 -19.046875 C 15.253906 -18.640625 16.5 -18.097656 17.5625 -17.421875 Z M 15.453125 -13.03125 "/></g></g></g><g fill="#ffffff" fill-opacity="1"><g transform="translate(198.618379, 196.797013)"><g><path d="M 11 -19.59375 C 12.976562 -19.59375 14.765625 -19.160156 16.359375 -18.296875 C 17.960938 -17.441406 19.21875 -16.257812 20.125 -14.75 C 21.03125 -13.238281 21.484375 -11.539062 21.484375 -9.65625 C 21.484375 -7.75 21.03125 -6.03125 20.125 -4.5 C 19.21875 -2.976562 17.960938 -1.78125 16.359375 -0.90625 C 14.765625 -0.0390625 12.976562 0.390625 11 0.390625 C 9.007812 0.390625 7.21875 -0.0390625 5.625 -0.90625 C 4.03125 -1.78125 2.78125 -2.976562 1.875 -4.5 C 0.96875 -6.03125 0.515625 -7.75 0.515625 -9.65625 C 0.515625 -11.539062 0.96875 -13.238281 1.875 -14.75 C 2.78125 -16.257812 4.03125 -17.441406 5.625 -18.296875 C 7.21875 -19.160156 9.007812 -19.59375 11 -19.59375 Z M 11.078125 -14.84375 C 10.242188 -14.84375 9.460938 -14.613281 8.734375 -14.15625 C 8.015625 -13.695312 7.4375 -13.066406 7 -12.265625 C 6.570312 -11.472656 6.359375 -10.59375 6.359375 -9.625 C 6.359375 -8.65625 6.570312 -7.769531 7 -6.96875 C 7.4375 -6.164062 8.015625 -5.53125 8.734375 -5.0625 C 9.460938 -4.59375 10.242188 -4.359375 11.078125 -4.359375 C 11.898438 -4.359375 12.664062 -4.59375 13.375 -5.0625 C 14.082031 -5.53125 14.632812 -6.160156 15.03125 -6.953125 C 15.4375 -7.753906 15.640625 -8.644531 15.640625 -9.625 C 15.640625 -10.59375 15.4375 -11.472656 15.03125 -12.265625 C 14.632812 -13.066406 14.085938 -13.695312 13.390625 -14.15625 C 12.691406 -14.613281 11.921875 -14.84375 11.078125 -14.84375 Z M 11.078125 -14.84375 "/></g></g></g><g fill="#ffffff" fill-opacity="1"><g transform="translate(222.019439, 196.797013)"><g><path d="M 14.65625 -8.5 L 14.65625 -19.234375 L 19.859375 -19.234375 L 19.859375 0 L 15.015625 0 L 6.859375 -10.703125 L 6.859375 0 L 1.625 0 L 1.625 -19.234375 L 6.5 -19.234375 Z M 14.65625 -8.5 "/></g></g></g><g fill="#ffffff" fill-opacity="1"><g transform="translate(244.899267, 196.797013)"><g><path d="M 21.78125 0 L 15.6875 0 L 14.5625 -3.078125 L 6.796875 -3.078125 L 5.65625 0 L -0.21875 0 L 7.984375 -19.234375 L 13.859375 -19.234375 Z M 10.75 -13.53125 L 8.390625 -7.25 L 13.0625 -7.25 Z M 10.75 -13.53125 "/></g></g></g><g fill="#ffffff" fill-opacity="1"><g transform="translate(267.861389, 196.797013)"><g><path d="M 14.65625 -8.5 L 14.65625 -19.234375 L 19.859375 -19.234375 L 19.859375 0 L 15.015625 0 L 6.859375 -10.703125 L 6.859375 0 L 1.625 0 L 1.625 -19.234375 L 6.5 -19.234375 Z M 14.65625 -8.5 "/></g></g></g><g fill="#ffffff" fill-opacity="1"><g transform="translate(290.741217, 196.797013)"><g><path d="M 0.171875 -14.671875 L 0.171875 -19.234375 L 17.0625 -19.234375 L 17.0625 -14.671875 L 11.46875 -14.671875 L 11.46875 0 L 5.734375 0 L 5.734375 -14.671875 Z M 0.171875 -14.671875 "/></g></g></g><g fill="#ffffff" fill-opacity="1"><g transform="translate(180.615111, 215.419733)"><g><path d="M 3.015625 0.109375 C 2.109375 0.109375 1.46875 -0.160156 1.09375 -0.703125 C 0.726562 -1.242188 0.546875 -1.992188 0.546875 -2.953125 L 0.546875 -6.1875 C 0.546875 -7.1875 0.722656 -7.945312 1.078125 -8.46875 C 1.441406 -8.988281 2.085938 -9.25 3.015625 -9.25 C 3.835938 -9.25 4.425781 -9.023438 4.78125 -8.578125 C 5.144531 -8.140625 5.328125 -7.484375 5.328125 -6.609375 L 5.328125 -5.890625 L 4.109375 -5.890625 L 4.109375 -6.53125 C 4.109375 -6.957031 4.085938 -7.28125 4.046875 -7.5 C 4.015625 -7.726562 3.921875 -7.910156 3.765625 -8.046875 C 3.609375 -8.191406 3.363281 -8.265625 3.03125 -8.265625 C 2.675781 -8.265625 2.414062 -8.1875 2.25 -8.03125 C 2.082031 -7.882812 1.96875 -7.679688 1.90625 -7.421875 C 1.851562 -7.160156 1.828125 -6.8125 1.828125 -6.375 L 1.828125 -2.734375 C 1.828125 -2.273438 1.863281 -1.910156 1.9375 -1.640625 C 2.019531 -1.378906 2.144531 -1.191406 2.3125 -1.078125 C 2.488281 -0.960938 2.726562 -0.90625 3.03125 -0.90625 C 3.351562 -0.90625 3.59375 -0.976562 3.75 -1.125 C 3.90625 -1.269531 4.003906 -1.460938 4.046875 -1.703125 C 4.085938 -1.953125 4.109375 -2.296875 4.109375 -2.734375 L 4.109375 -3.40625 L 5.328125 -3.40625 L 5.328125 -2.734375 C 5.328125 -1.816406 5.15625 -1.113281 4.8125 -0.625 C 4.46875 -0.132812 3.867188 0.109375 3.015625 0.109375 Z M 3.015625 0.109375 "/></g></g></g><g fill="#ffffff" fill-opacity="1"><g transform="translate(189.489056, 215.419733)"><g><path d="M 3.0625 0.109375 C 2.15625 0.109375 1.507812 -0.144531 1.125 -0.65625 C 0.738281 -1.164062 0.546875 -1.90625 0.546875 -2.875 L 0.546875 -6.359375 C 0.546875 -7.304688 0.738281 -8.023438 1.125 -8.515625 C 1.519531 -9.003906 2.164062 -9.25 3.0625 -9.25 C 3.945312 -9.25 4.582031 -9 4.96875 -8.5 C 5.363281 -8.007812 5.5625 -7.296875 5.5625 -6.359375 L 5.5625 -2.859375 C 5.5625 -1.910156 5.363281 -1.175781 4.96875 -0.65625 C 4.582031 -0.144531 3.945312 0.109375 3.0625 0.109375 Z M 3.0625 -0.90625 C 3.53125 -0.90625 3.847656 -1.046875 4.015625 -1.328125 C 4.179688 -1.609375 4.265625 -2.03125 4.265625 -2.59375 L 4.265625 -6.609375 C 4.265625 -7.171875 4.179688 -7.585938 4.015625 -7.859375 C 3.847656 -8.128906 3.53125 -8.265625 3.0625 -8.265625 C 2.570312 -8.265625 2.242188 -8.128906 2.078125 -7.859375 C 1.910156 -7.585938 1.828125 -7.171875 1.828125 -6.609375 L 1.828125 -2.59375 C 1.828125 -2.03125 1.910156 -1.609375 2.078125 -1.328125 C 2.242188 -1.046875 2.570312 -0.90625 3.0625 -0.90625 Z M 3.0625 -0.90625 "/></g></g></g><g fill="#ffffff" fill-opacity="1"><g transform="translate(198.634959, 215.419733)"><g><path d="M 0.71875 -9.171875 L 1.59375 -9.171875 L 4.1875 -3.078125 L 4.1875 -9.171875 L 5.25 -9.171875 L 5.25 0 L 4.4375 0 L 1.796875 -6.265625 L 1.796875 0 L 0.71875 0 Z M 0.71875 -9.171875 "/></g></g></g><g fill="#ffffff" fill-opacity="1"><g transform="translate(207.656213, 215.419733)"><g><path d="M 1.71875 -8.21875 L 0.171875 -8.21875 L 0.171875 -9.171875 L 4.515625 -9.171875 L 4.515625 -8.21875 L 3 -8.21875 L 3 0 L 1.71875 0 Z M 1.71875 -8.21875 "/></g></g></g><g fill="#ffffff" fill-opacity="1"><g transform="translate(215.374294, 215.419733)"><g><path d="M 0.71875 -9.171875 L 4.265625 -9.171875 L 4.265625 -8.21875 L 2 -8.21875 L 2 -5.1875 L 3.84375 -5.1875 L 3.84375 -4.28125 L 2 -4.28125 L 2 -0.921875 L 4.296875 -0.921875 L 4.296875 0 L 0.71875 0 Z M 0.71875 -9.171875 "/></g></g></g><g fill="#ffffff" fill-opacity="1"><g transform="translate(223.024386, 215.419733)"><g><path d="M 0.71875 -9.171875 L 1.59375 -9.171875 L 4.1875 -3.078125 L 4.1875 -9.171875 L 5.25 -9.171875 L 5.25 0 L 4.4375 0 L 1.796875 -6.265625 L 1.796875 0 L 0.71875 0 Z M 0.71875 -9.171875 "/></g></g></g><g fill="#ffffff" fill-opacity="1"><g transform="translate(232.04564, 215.419733)"><g><path d="M 1.71875 -8.21875 L 0.171875 -8.21875 L 0.171875 -9.171875 L 4.515625 -9.171875 L 4.515625 -8.21875 L 3 -8.21875 L 3 0 L 1.71875 0 Z M 1.71875 -8.21875 "/></g></g></g><g fill="#ffffff" fill-opacity="1"><g transform="translate(239.763723, 215.419733)"><g/></g></g><g fill="#ffffff" fill-opacity="1"><g transform="translate(245.396723, 215.419733)"><g><path d="M 2.640625 0.109375 C 2.015625 0.109375 1.523438 -0.0820312 1.171875 -0.46875 C 0.828125 -0.851562 0.65625 -1.347656 0.65625 -1.953125 C 0.65625 -2.492188 0.773438 -2.976562 1.015625 -3.40625 C 1.253906 -3.832031 1.582031 -4.234375 2 -4.609375 L 1.75 -5.078125 C 1.5 -5.515625 1.3125 -5.890625 1.1875 -6.203125 C 1.0625 -6.523438 1 -6.867188 1 -7.234375 C 1 -7.835938 1.171875 -8.320312 1.515625 -8.6875 C 1.867188 -9.0625 2.347656 -9.25 2.953125 -9.25 C 3.523438 -9.25 3.992188 -9.097656 4.359375 -8.796875 C 4.722656 -8.492188 4.90625 -8.082031 4.90625 -7.5625 C 4.90625 -7.019531 4.738281 -6.5 4.40625 -6 C 4.082031 -5.507812 3.675781 -5.023438 3.1875 -4.546875 L 4.5625 -2.375 C 4.78125 -2.800781 4.929688 -3.414062 5.015625 -4.21875 L 6.21875 -4.21875 C 6.21875 -3.789062 6.128906 -3.332031 5.953125 -2.84375 C 5.773438 -2.363281 5.566406 -1.957031 5.328125 -1.625 C 5.441406 -1.488281 5.578125 -1.375 5.734375 -1.28125 C 5.890625 -1.195312 6.054688 -1.15625 6.234375 -1.15625 L 6.234375 0.09375 L 6.078125 0.09375 C 5.867188 0.09375 5.675781 0.046875 5.5 -0.046875 C 5.332031 -0.140625 5.195312 -0.234375 5.09375 -0.328125 C 4.988281 -0.421875 4.828125 -0.578125 4.609375 -0.796875 C 4.390625 -0.523438 4.113281 -0.304688 3.78125 -0.140625 C 3.445312 0.0234375 3.066406 0.109375 2.640625 0.109375 Z M 2.765625 -5.21875 C 3.023438 -5.519531 3.242188 -5.882812 3.421875 -6.3125 C 3.597656 -6.738281 3.6875 -7.15625 3.6875 -7.5625 C 3.6875 -7.78125 3.617188 -7.953125 3.484375 -8.078125 C 3.359375 -8.203125 3.179688 -8.265625 2.953125 -8.265625 C 2.703125 -8.265625 2.515625 -8.160156 2.390625 -7.953125 C 2.265625 -7.753906 2.203125 -7.515625 2.203125 -7.234375 C 2.203125 -6.910156 2.25 -6.585938 2.34375 -6.265625 C 2.445312 -5.941406 2.585938 -5.59375 2.765625 -5.21875 Z M 2.640625 -0.90625 C 3.097656 -0.90625 3.507812 -1.132812 3.875 -1.59375 L 2.46875 -3.75 C 2.289062 -3.519531 2.144531 -3.242188 2.03125 -2.921875 C 1.925781 -2.609375 1.875 -2.285156 1.875 -1.953125 C 1.875 -1.648438 1.929688 -1.398438 2.046875 -1.203125 C 2.171875 -1.003906 2.367188 -0.90625 2.640625 -0.90625 Z M 2.640625 -0.90625 "/></g></g></g><g fill="#ffffff" fill-opacity="1"><g transform="translate(255.301869, 215.419733)"><g/></g></g><g fill="#ffffff" fill-opacity="1"><g transform="translate(260.934868, 215.419733)"><g><path d="M 0.71875 -9.171875 L 2.703125 -9.171875 C 3.691406 -9.171875 4.390625 -8.941406 4.796875 -8.484375 C 5.210938 -8.035156 5.421875 -7.332031 5.421875 -6.375 L 5.421875 -3 C 5.421875 -1.988281 5.21875 -1.234375 4.8125 -0.734375 C 4.414062 -0.242188 3.75 0 2.8125 0 L 0.71875 0 Z M 2.71875 -0.921875 C 3.164062 -0.921875 3.488281 -1.003906 3.6875 -1.171875 C 3.882812 -1.347656 4.007812 -1.582031 4.0625 -1.875 C 4.113281 -2.175781 4.140625 -2.628906 4.140625 -3.234375 L 4.140625 -6.21875 C 4.140625 -6.738281 4.101562 -7.132812 4.03125 -7.40625 C 3.96875 -7.6875 3.832031 -7.890625 3.625 -8.015625 C 3.425781 -8.148438 3.113281 -8.21875 2.6875 -8.21875 L 2 -8.21875 L 2 -0.921875 Z M 2.71875 -0.921875 "/></g></g></g><g fill="#ffffff" fill-opacity="1"><g transform="translate(269.94479, 215.419733)"><g><path d="M 0.71875 -9.171875 L 4.265625 -9.171875 L 4.265625 -8.21875 L 2 -8.21875 L 2 -5.1875 L 3.84375 -5.1875 L 3.84375 -4.28125 L 2 -4.28125 L 2 -0.921875 L 4.296875 -0.921875 L 4.296875 0 L 0.71875 0 Z M 0.71875 -9.171875 "/></g></g></g><g fill="#ffffff" fill-opacity="1"><g transform="translate(277.594879, 215.419733)"><g><path d="M 2.875 0.109375 C 2.101562 0.109375 1.515625 -0.128906 1.109375 -0.609375 C 0.710938 -1.085938 0.488281 -1.742188 0.4375 -2.578125 L 1.578125 -2.875 C 1.609375 -2.289062 1.71875 -1.816406 1.90625 -1.453125 C 2.101562 -1.085938 2.425781 -0.90625 2.875 -0.90625 C 3.207031 -0.90625 3.457031 -1 3.625 -1.1875 C 3.800781 -1.375 3.890625 -1.640625 3.890625 -1.984375 C 3.890625 -2.359375 3.804688 -2.671875 3.640625 -2.921875 C 3.484375 -3.171875 3.234375 -3.445312 2.890625 -3.75 L 1.34375 -5.109375 C 1.039062 -5.378906 0.816406 -5.671875 0.671875 -5.984375 C 0.535156 -6.296875 0.46875 -6.679688 0.46875 -7.140625 C 0.46875 -7.804688 0.660156 -8.320312 1.046875 -8.6875 C 1.429688 -9.0625 1.953125 -9.25 2.609375 -9.25 C 3.335938 -9.25 3.882812 -9.054688 4.25 -8.671875 C 4.625 -8.285156 4.847656 -7.691406 4.921875 -6.890625 L 3.84375 -6.59375 C 3.800781 -7.125 3.695312 -7.535156 3.53125 -7.828125 C 3.363281 -8.117188 3.054688 -8.265625 2.609375 -8.265625 C 2.285156 -8.265625 2.035156 -8.179688 1.859375 -8.015625 C 1.691406 -7.847656 1.609375 -7.597656 1.609375 -7.265625 C 1.609375 -6.992188 1.648438 -6.765625 1.734375 -6.578125 C 1.828125 -6.390625 1.984375 -6.203125 2.203125 -6.015625 L 3.765625 -4.65625 C 4.160156 -4.300781 4.476562 -3.914062 4.71875 -3.5 C 4.957031 -3.082031 5.078125 -2.609375 5.078125 -2.078125 C 5.078125 -1.410156 4.875 -0.878906 4.46875 -0.484375 C 4.0625 -0.0859375 3.53125 0.109375 2.875 0.109375 Z M 2.875 0.109375 "/></g></g></g><g fill="#ffffff" fill-opacity="1"><g transform="translate(285.992873, 215.419733)"><g><path d="M 0.78125 -9.171875 L 2.046875 -9.171875 L 2.046875 0 L 0.78125 0 Z M 0.78125 -9.171875 "/></g></g></g><g fill="#ffffff" fill-opacity="1"><g transform="translate(291.84117, 215.419733)"><g><path d="M 2.90625 0.109375 C 2.070312 0.109375 1.46875 -0.148438 1.09375 -0.671875 C 0.726562 -1.203125 0.546875 -1.984375 0.546875 -3.015625 L 0.546875 -6.078125 C 0.546875 -6.785156 0.617188 -7.367188 0.765625 -7.828125 C 0.910156 -8.285156 1.160156 -8.632812 1.515625 -8.875 C 1.878906 -9.125 2.375 -9.25 3 -9.25 C 3.84375 -9.25 4.453125 -9.035156 4.828125 -8.609375 C 5.203125 -8.179688 5.390625 -7.503906 5.390625 -6.578125 L 5.390625 -6.234375 L 4.1875 -6.234375 L 4.1875 -6.53125 C 4.1875 -6.96875 4.160156 -7.300781 4.109375 -7.53125 C 4.054688 -7.769531 3.941406 -7.953125 3.765625 -8.078125 C 3.597656 -8.203125 3.351562 -8.265625 3.03125 -8.265625 C 2.675781 -8.265625 2.410156 -8.179688 2.234375 -8.015625 C 2.054688 -7.847656 1.941406 -7.628906 1.890625 -7.359375 C 1.847656 -7.085938 1.828125 -6.726562 1.828125 -6.28125 L 1.828125 -2.875 C 1.828125 -2.175781 1.910156 -1.671875 2.078125 -1.359375 C 2.242188 -1.054688 2.570312 -0.90625 3.0625 -0.90625 C 3.53125 -0.90625 3.851562 -1.070312 4.03125 -1.40625 C 4.21875 -1.738281 4.3125 -2.269531 4.3125 -3 L 4.3125 -3.640625 L 3.140625 -3.640625 L 3.140625 -4.546875 L 5.453125 -4.546875 L 5.453125 0 L 4.65625 0 L 4.53125 -1.046875 C 4.238281 -0.273438 3.695312 0.109375 2.90625 0.109375 Z M 2.90625 0.109375 "/></g></g></g><g fill="#ffffff" fill-opacity="1"><g transform="translate(300.941751, 215.419733)"><g><path d="M 0.71875 -9.171875 L 1.59375 -9.171875 L 4.1875 -3.078125 L 4.1875 -9.171875 L 5.25 -9.171875 L 5.25 0 L 4.4375 0 L 1.796875 -6.265625 L 1.796875 0 L 0.71875 0 Z M 0.71875 -9.171875 "/></g></g></g><path stroke-linecap="butt" transform="matrix(3.00276, 0.000000000000001117, -0.000000000000001116, 3, 121.890436, 202.303302)" fill="none" stroke-linejoin="miter" d="M 0.0000630434 0.000461862 L 38.217512 0.000461862 " stroke="#ffffff" stroke-width="1" stroke-opacity="1" stroke-miterlimit="4"/><path stroke-linecap="butt" transform="matrix(2.979053, 0, 0, 3, 261.600487, 202.303302)" fill="none" stroke-linejoin="miter" d="M 0.000361181 0.000461862 L 15.109764 0.000461862 " stroke="#ffffff" stroke-width="1" stroke-opacity="1" stroke-miterlimit="4"/><g clip-path="url(#01cc2eca9b)"><g mask="url(#3c4eb2912a)"><g transform="matrix(1, 0, 0, 1, 107, 137)"><g clip-path="url(#fb94ff63ac)"><g clip-path="url(#ea957f83cd)"><path fill="#16e0bd" d="M 95.292969 39.859375 C 93.414062 34.277344 90.492188 29.070312 86.695312 24.609375 C 82.894531 20.109375 78.21875 16.359375 72.960938 13.652344 C 67.699219 10.902344 61.855469 9.234375 55.84375 8.777344 C 49.832031 8.320312 43.695312 9.027344 37.933594 11.070312 C 37.933594 11.109375 37.933594 11.152344 37.851562 11.234375 C 37.683594 11.402344 37.347656 11.609375 36.933594 11.777344 C 36.515625 11.984375 36.054688 12.152344 35.597656 12.320312 C 33.050781 13.234375 30.585938 14.445312 28.207031 15.820312 C 23.949219 18.609375 20.273438 22.195312 17.269531 26.234375 C 17.851562 25.402344 18.519531 24.652344 19.148438 23.859375 C 19.816406 23.109375 20.484375 22.359375 21.191406 21.652344 C 22.570312 20.195312 24.117188 18.902344 25.703125 17.734375 C 26.160156 17.359375 26.621094 17.070312 26.953125 16.902344 C 27.289062 16.734375 27.496094 16.695312 27.539062 16.820312 C 27.539062 16.945312 27.371094 17.152344 27.039062 17.484375 C 26.746094 17.820312 26.285156 18.195312 25.828125 18.570312 C 21.652344 21.859375 17.9375 26.234375 15.222656 30.984375 C 12.46875 35.734375 10.714844 40.859375 9.585938 45.527344 C 8.792969 51.609375 9.378906 57.820312 11.175781 63.527344 C 12.96875 69.234375 16.015625 74.484375 19.898438 78.777344 C 23.78125 83.070312 28.539062 86.484375 33.632812 88.734375 C 38.726562 90.984375 44.195312 92.109375 49.496094 92.152344 C 49.914062 92.152344 50.414062 92.195312 50.625 92.277344 C 50.917969 92.359375 50.832031 92.445312 50.457031 92.445312 C 44.90625 92.695312 39.019531 91.734375 33.382812 89.359375 C 30.585938 88.152344 27.832031 86.652344 25.285156 84.777344 C 22.738281 82.902344 20.316406 80.695312 18.1875 78.195312 C 16.058594 75.695312 14.179688 72.945312 12.675781 69.902344 C 11.175781 66.902344 9.964844 63.695312 9.171875 60.320312 C 8.417969 56.945312 8.042969 53.484375 8.085938 49.945312 L 8.085938 49.277344 L 8.125 48.609375 L 8.210938 47.277344 C 8.292969 46.402344 8.375 45.527344 8.503906 44.652344 C 8.792969 42.902344 9.085938 41.152344 9.585938 39.445312 L 9.921875 38.195312 L 10.339844 36.945312 C 10.589844 36.109375 10.921875 35.320312 11.257812 34.527344 C 9.128906 39.027344 7.75 44.027344 7.292969 49.320312 C 7.417969 49.859375 7.457031 50.734375 7.457031 51.777344 C 7.542969 54.277344 7.835938 56.734375 8.292969 59.152344 C 8.292969 59.027344 8.335938 58.984375 8.375 58.945312 C 8.542969 58.945312 8.835938 59.820312 9.042969 60.859375 C 10.339844 66.902344 12.925781 72.609375 16.558594 77.609375 C 16.644531 77.734375 16.726562 77.859375 16.808594 77.945312 C 21.484375 83.984375 27.707031 88.820312 34.675781 91.734375 C 41.648438 94.734375 49.332031 95.820312 56.804688 94.984375 C 57.261719 94.945312 57.722656 94.859375 58.179688 94.820312 C 58.640625 94.734375 59.097656 94.695312 59.558594 94.609375 L 60.9375 94.320312 L 61.644531 94.195312 L 62.3125 94.027344 L 63.691406 93.695312 L 65.027344 93.277344 C 65.945312 93.027344 66.78125 92.652344 67.699219 92.359375 C 69.453125 91.652344 71.164062 90.945312 72.792969 90.027344 C 73.628906 89.609375 74.421875 89.109375 75.214844 88.652344 C 75.632812 88.402344 76.007812 88.152344 76.382812 87.902344 C 76.757812 87.652344 77.175781 87.402344 77.550781 87.109375 C 83.644531 82.777344 88.53125 76.859375 91.703125 70.152344 C 91.828125 69.734375 92.078125 69.195312 92.289062 68.945312 C 92.496094 68.652344 92.582031 68.734375 92.453125 69.152344 C 92.539062 69.152344 92.664062 69.109375 92.621094 69.234375 C 90.703125 74.445312 87.820312 79.234375 84.023438 83.445312 C 80.179688 87.609375 75.378906 91.152344 69.621094 93.570312 C 65.652344 95.234375 61.480469 96.320312 57.21875 96.820312 C 61.644531 96.570312 65.863281 95.777344 69.621094 94.734375 C 74.878906 92.609375 79.765625 89.484375 83.898438 85.652344 C 88.03125 81.820312 91.496094 77.359375 94.167969 72.570312 L 93.875 72.902344 C 94.082031 72.484375 94.332031 72.070312 94.542969 71.777344 C 94.75 71.484375 94.875 71.277344 94.960938 71.320312 C 95.042969 71.320312 95.042969 71.484375 94.960938 71.820312 C 94.875 72.109375 94.710938 72.527344 94.457031 72.984375 C 93.375 75.320312 92.078125 77.609375 90.578125 79.777344 C 89.074219 81.945312 87.363281 83.945312 85.523438 85.859375 C 83.644531 87.734375 81.644531 89.484375 79.472656 91.027344 C 77.300781 92.570312 74.964844 93.945312 72.542969 95.109375 C 62.816406 99.820312 51.335938 100.945312 40.648438 98.320312 C 35.304688 96.984375 30.167969 94.734375 25.578125 91.652344 C 20.984375 88.570312 16.894531 84.695312 13.554688 80.234375 C 10.214844 75.777344 7.667969 70.695312 6.039062 65.359375 C 4.367188 60.027344 3.742188 54.359375 3.953125 48.734375 C 4.328125 39.820312 7.332031 31.070312 12.382812 23.777344 C 17.394531 16.445312 24.492188 10.609375 32.632812 6.984375 C 33.84375 6.402344 35.011719 6.109375 35.847656 5.902344 C 36.679688 5.734375 37.265625 5.734375 37.308594 5.945312 C 37.347656 6.320312 35.429688 7.277344 33.089844 8.359375 C 25.324219 11.859375 18.648438 17.527344 13.886719 24.484375 C 9.085938 31.445312 6.207031 39.652344 5.703125 48.109375 C 5.496094 51.820312 5.621094 55.570312 6.289062 59.195312 C 6.914062 62.820312 8 66.402344 9.421875 69.777344 C 7.25 64.445312 6.207031 58.734375 6.207031 53.070312 C 6.082031 50.902344 6.164062 48.734375 6.371094 46.570312 C 6.582031 44.402344 7 42.234375 7.5 40.070312 C 8.085938 37.945312 8.753906 35.820312 9.628906 33.777344 C 10.507812 31.734375 11.507812 29.734375 12.675781 27.820312 C 15.472656 23.152344 19.023438 19.152344 23.070312 15.902344 C 27.121094 12.652344 31.671875 10.070312 36.554688 8.320312 C 41.398438 6.570312 46.535156 5.570312 51.792969 5.402344 C 54.421875 5.320312 57.054688 5.445312 59.683594 5.777344 C 62.3125 6.109375 64.984375 6.695312 67.574219 7.445312 C 72.667969 8.945312 77.175781 11.152344 81.226562 13.734375 C 83.230469 15.070312 85.109375 16.484375 86.902344 18.027344 C 88.65625 19.570312 90.324219 21.234375 91.828125 22.984375 C 93.375 24.734375 94.75 26.609375 96.003906 28.570312 C 97.257812 30.527344 98.382812 32.652344 99.386719 34.820312 C 100.34375 37.027344 101.179688 39.320312 101.804688 41.734375 C 102.433594 44.152344 102.890625 46.652344 103.140625 49.277344 C 103.226562 50.195312 103.183594 51.234375 103.058594 51.570312 C 103.015625 51.734375 102.933594 51.734375 102.851562 51.570312 C 102.765625 51.402344 102.726562 51.070312 102.683594 50.609375 C 101.847656 40.570312 97.964844 31.484375 91.996094 24.195312 C 90.535156 22.359375 88.863281 20.652344 87.113281 19.070312 C 86.234375 18.234375 85.316406 17.527344 84.398438 16.734375 C 83.9375 16.359375 83.4375 16.027344 82.976562 15.652344 C 82.519531 15.277344 81.976562 14.984375 81.515625 14.609375 C 79.511719 13.277344 77.425781 12.027344 75.214844 10.984375 C 73 9.945312 70.664062 9.027344 68.285156 8.320312 C 63.148438 6.777344 57.886719 6.109375 52.671875 6.195312 C 47.453125 6.320312 42.316406 7.234375 37.433594 8.984375 C 32.546875 10.734375 27.957031 13.277344 23.863281 16.570312 C 19.773438 19.859375 16.226562 23.859375 13.429688 28.445312 C 12.675781 29.695312 11.96875 30.945312 11.339844 32.234375 C 12.46875 30.152344 13.71875 28.152344 15.140625 26.320312 C 16.558594 24.484375 18.105469 22.777344 19.730469 21.195312 C 25.910156 14.777344 33.882812 10.320312 42.441406 8.402344 C 51 6.484375 60.058594 7.070312 68.367188 10.152344 C 71.582031 11.359375 74.671875 12.859375 77.507812 14.695312 C 80.390625 16.527344 83.019531 18.695312 85.398438 21.070312 C 86.027344 21.652344 86.570312 22.320312 87.152344 22.945312 C 87.738281 23.570312 88.238281 24.234375 88.78125 24.902344 C 89.824219 26.234375 90.828125 27.652344 91.703125 29.109375 C 93.457031 32.027344 94.917969 35.152344 95.960938 38.484375 C 96.210938 39.320312 96.460938 40.152344 96.503906 40.820312 C 96.589844 41.484375 96.589844 41.984375 96.460938 42.195312 C 96.378906 42.359375 96.171875 42.195312 95.960938 41.777344 C 95.792969 41.359375 95.542969 40.695312 95.292969 39.859375 Z M 34.175781 93.945312 C 31.210938 92.820312 28.375 91.359375 25.703125 89.609375 C 30.835938 93.195312 36.722656 95.734375 42.859375 97.027344 C 48.996094 98.320312 55.425781 98.359375 61.605469 97.109375 C 57.054688 97.820312 52.335938 97.945312 47.660156 97.445312 C 43.027344 96.902344 38.433594 95.734375 34.175781 93.945312 Z M 34.175781 93.945312 " fill-opacity="1" fill-rule="nonzero"/></g><g clip-path="url(#838f48bde8)"><path fill="#16e0bd" d="M 48.285156 100.984375 C 44.53125 100.570312 40.8125 99.695312 37.222656 98.527344 C 33.632812 97.359375 30.210938 95.902344 27.039062 94.320312 C 26.746094 94.152344 26.535156 94.109375 26.660156 94.234375 C 26.789062 94.402344 27.121094 94.609375 27.457031 94.777344 C 30.503906 96.277344 33.84375 97.695312 37.308594 98.777344 C 40.773438 99.902344 44.445312 100.734375 48.035156 101.152344 C 48.453125 101.195312 48.828125 101.195312 48.871094 101.109375 C 48.953125 101.109375 48.664062 101.027344 48.285156 100.984375 Z M 48.285156 100.984375 " fill-opacity="1" fill-rule="nonzero"/></g><g clip-path="url(#45ca30b93f)"><path fill="#16e0bd" d="M 22.613281 91.859375 C 17.726562 88.609375 13.304688 84.359375 9.796875 79.320312 C 6.332031 74.277344 3.703125 68.445312 2.324219 62.277344 C 0.945312 56.109375 0.738281 49.609375 1.78125 43.234375 C 2.824219 36.859375 5.164062 30.652344 8.585938 25.152344 C 14.136719 16.152344 22.320312 9.277344 31.628906 5.152344 C 32.214844 4.902344 32.796875 4.609375 33.382812 4.402344 L 35.179688 3.734375 C 36.390625 3.320312 37.601562 2.902344 38.808594 2.609375 C 40.019531 2.234375 41.273438 1.984375 42.527344 1.734375 C 43.777344 1.527344 45.03125 1.277344 46.324219 1.152344 C 47.578125 0.984375 48.871094 0.902344 50.164062 0.820312 C 50.792969 0.777344 51.460938 0.777344 52.085938 0.777344 C 52.710938 0.734375 53.378906 0.777344 54.007812 0.777344 C 54.632812 0.820312 55.300781 0.777344 55.925781 0.820312 C 56.550781 0.859375 57.21875 0.902344 57.847656 0.945312 C 58.472656 0.984375 59.140625 1.070312 59.765625 1.152344 C 60.101562 1.195312 60.394531 1.234375 60.726562 1.277344 L 61.6875 1.445312 C 65.070312 1.984375 68.410156 2.859375 71.539062 3.984375 C 74.710938 5.109375 77.675781 6.484375 80.472656 8.027344 C 80.933594 8.277344 81.265625 8.402344 81.140625 8.234375 C 80.976562 8.027344 80.515625 7.695312 79.972656 7.402344 C 74.128906 4.152344 67.699219 1.945312 61.019531 0.945312 C 54.339844 -0.0546875 47.492188 0.195312 40.8125 1.695312 C 34.175781 3.195312 27.789062 6.027344 22.195312 10.027344 C 16.683594 13.902344 11.882812 18.984375 8.335938 24.859375 C 4.910156 30.445312 2.574219 36.695312 1.570312 43.152344 C 0.527344 49.609375 0.738281 56.195312 2.15625 62.484375 C 3.574219 68.777344 6.246094 74.695312 9.878906 79.777344 C 13.46875 84.859375 18.019531 89.152344 23.03125 92.402344 C 23.28125 92.570312 23.488281 92.609375 23.40625 92.484375 C 23.238281 92.320312 22.863281 92.027344 22.613281 91.859375 Z M 22.613281 91.859375 " fill-opacity="1" fill-rule="nonzero"/></g><path fill="#16e0bd" d="M 41.023438 2.152344 C 37.472656 3.027344 34.007812 4.320312 30.710938 5.945312 C 27.457031 7.570312 24.324219 9.527344 21.484375 11.820312 C 18.605469 14.070312 15.933594 16.652344 13.59375 19.445312 C 11.214844 22.277344 9.128906 25.359375 7.332031 28.652344 C 5.371094 32.195312 3.953125 35.984375 3.035156 39.902344 C 2.113281 43.820312 1.65625 47.902344 1.863281 52.109375 C 1.949219 54.902344 2.367188 57.570312 2.90625 60.195312 C 3.449219 62.777344 4.203125 65.277344 5.078125 67.695312 C 5.496094 68.902344 6.039062 70.109375 6.539062 71.277344 C 6.832031 71.859375 7.082031 72.445312 7.375 73.027344 C 7.667969 73.609375 7.960938 74.195312 8.292969 74.777344 C 9.546875 77.070312 10.921875 79.320312 12.550781 81.527344 C 12.761719 81.820312 13.011719 82.070312 13.136719 82.109375 C 13.179688 82.070312 13.050781 81.859375 12.84375 81.570312 C 9.421875 76.777344 6.75 71.652344 4.910156 66.234375 C 3.117188 60.820312 2.199219 55.070312 2.324219 49.109375 C 2.40625 46.359375 2.742188 43.609375 3.285156 40.902344 C 3.828125 38.277344 4.621094 35.652344 5.621094 33.109375 C 7.625 28.027344 10.507812 23.359375 13.972656 19.234375 C 21.027344 11.027344 30.542969 5.109375 41.148438 2.359375 C 41.605469 2.234375 41.859375 2.152344 41.859375 2.070312 C 41.816406 2.027344 41.441406 2.070312 41.023438 2.152344 Z M 41.023438 2.152344 " fill-opacity="1" fill-rule="nonzero"/><path fill="#16e0bd" d="M 10.546875 47.527344 C 10.171875 50.984375 10.214844 54.570312 10.757812 58.070312 C 11.300781 61.570312 12.300781 65.027344 13.761719 68.234375 C 15.222656 71.445312 17.101562 74.359375 19.230469 76.902344 C 21.402344 79.445312 23.824219 81.570312 26.285156 83.277344 C 26.535156 83.445312 26.621094 83.445312 26.496094 83.234375 C 26.371094 83.070312 26.035156 82.777344 25.828125 82.609375 C 23.40625 80.902344 21.066406 78.777344 19.0625 76.234375 C 17.058594 73.695312 15.265625 70.820312 13.929688 67.695312 C 12.59375 64.570312 11.632812 61.234375 11.132812 57.859375 C 10.671875 54.484375 10.589844 51.027344 10.921875 47.695312 C 10.964844 47.070312 11.007812 46.484375 10.882812 46.402344 C 10.796875 46.402344 10.632812 46.859375 10.546875 47.527344 Z M 10.546875 47.527344 " fill-opacity="1" fill-rule="nonzero"/><path fill="#16e0bd" d="M 52.042969 99.984375 C 48.285156 99.945312 44.53125 99.445312 40.855469 98.527344 C 37.222656 97.609375 33.675781 96.234375 30.335938 94.527344 C 26.996094 92.820312 23.90625 90.695312 21.027344 88.320312 C 18.1875 85.945312 15.597656 83.234375 13.304688 80.320312 C 9.171875 74.527344 6.289062 67.945312 4.828125 61.027344 C 4.660156 60.027344 4.371094 59.234375 4.242188 59.277344 C 4.078125 59.277344 4.117188 60.152344 4.285156 61.152344 C 4.953125 64.695312 6.039062 68.152344 7.457031 71.445312 C 7.375 71.359375 7.292969 71.359375 7.292969 71.402344 C 2.113281 59.820312 1.65625 46.195312 6.082031 34.195312 C 6.332031 33.527344 6.457031 33.027344 6.371094 32.984375 C 6.289062 32.945312 5.996094 33.445312 5.746094 34.109375 C 3.410156 40.359375 2.40625 47.109375 2.742188 53.734375 C 3.074219 60.359375 4.785156 66.902344 7.707031 72.820312 C 7.875 73.277344 8.125 73.777344 8.417969 74.320312 C 9.710938 76.777344 11.214844 79.109375 12.925781 81.277344 C 14.597656 83.445312 16.476562 85.445312 18.480469 87.320312 C 22.488281 91.027344 27.121094 94.070312 32.214844 96.320312 C 35.847656 97.902344 39.601562 99.109375 43.402344 99.859375 C 47.242188 100.609375 51.082031 100.902344 54.964844 100.820312 C 58.847656 100.734375 62.691406 100.152344 66.40625 99.109375 C 70.164062 98.070312 73.792969 96.609375 77.175781 94.695312 C 82.5625 91.652344 87.152344 87.445312 91.035156 82.609375 C 92.664062 80.609375 94.207031 78.402344 95.503906 76.195312 C 96.171875 75.070312 96.714844 73.945312 97.257812 72.820312 C 97.757812 71.652344 98.214844 70.527344 98.59375 69.402344 C 100.59375 63.152344 100.929688 57.234375 100.34375 51.734375 C 100.304688 51.402344 100.261719 51.359375 100.21875 51.609375 C 100.179688 51.820312 100.136719 52.277344 100.179688 52.527344 C 100.429688 55.277344 100.429688 58.195312 100.054688 61.152344 C 99.71875 64.070312 99.09375 67.027344 98.300781 69.777344 C 96.210938 74.984375 93.25 79.820312 89.617188 84.027344 C 85.941406 88.234375 81.644531 91.820312 76.839844 94.695312 C 74.921875 95.695312 72.917969 96.570312 70.914062 97.234375 C 68.910156 97.945312 66.863281 98.445312 64.820312 98.902344 C 60.644531 99.652344 56.425781 100.070312 52.042969 99.984375 Z M 52.042969 99.984375 " fill-opacity="1" fill-rule="nonzero"/></g></g></g></g></svg>